<svg width="24" height="24" viewBox="0 0 24 24" fill="none" xmlns="http://www.w3.org/2000/svg">
<path d="M9.33825 11.9997C9.33825 11.8791 9.35748 11.767 9.39595 11.6631C9.43442 11.5593 9.50044 11.4606 9.59403 11.367L14.0883 6.87276C14.2267 6.7343 14.4007 6.66346 14.6104 6.66026C14.82 6.65705 14.9972 6.72788 15.1421 6.87276C15.2869 7.01763 15.3594 7.19326 15.3594 7.39966C15.3594 7.60606 15.2869 7.78169 15.1421 7.92656L11.069 11.9997L15.1421 16.0728C15.2805 16.2112 15.3514 16.3852 15.3546 16.5949C15.3578 16.8045 15.2869 16.9817 15.1421 17.1266C14.9972 17.2714 14.8216 17.3439 14.6152 17.3439C14.4088 17.3439 14.2331 17.2714 14.0883 17.1266L9.59403 12.6323C9.50044 12.5388 9.43442 12.44 9.39595 12.3362C9.35748 12.2324 9.33825 12.1202 9.33825 11.9997Z" fill="#8F95B2"/>
</svg>
