<svg width="24" height="24" viewBox="0 0 24 24" fill="none" xmlns="http://www.w3.org/2000/svg">
<path d="M14.6618 12.0003C14.6618 12.1209 14.6425 12.233 14.6041 12.3369C14.5656 12.4407 14.4996 12.5394 14.406 12.633L9.91175 17.1272C9.7733 17.2657 9.59927 17.3365 9.38965 17.3397C9.18003 17.343 9.00279 17.2721 8.85792 17.1272C8.71306 16.9824 8.64063 16.8067 8.64063 16.6003C8.64063 16.3939 8.71306 16.2183 8.85792 16.0734L12.931 12.0003L8.85792 7.92724C8.71947 7.78879 8.64864 7.61476 8.64542 7.40514C8.64222 7.19554 8.71306 7.01831 8.85792 6.87344C9.00279 6.72856 9.17843 6.65612 9.38485 6.65612C9.59125 6.65612 9.76688 6.72856 9.91175 6.87344L14.406 11.3677C14.4996 11.4612 14.5656 11.56 14.6041 11.6638C14.6425 11.7676 14.6618 11.8798 14.6618 12.0003Z" fill="#8F95B2"/>
</svg>
