<svg width="22" height="22" viewBox="0 0 22 22" fill="none" xmlns="http://www.w3.org/2000/svg">
<path d="M10.0827 16.4993C11.8549 16.4993 13.3674 15.8753 14.6202 14.6272C15.8729 13.3791 16.4993 11.8643 16.4993 10.0827C16.4993 8.31044 15.8729 6.79794 14.6202 5.54516C13.3674 4.29238 11.8549 3.66599 10.0827 3.66599C8.30104 3.66599 6.78619 4.29238 5.5381 5.54516C4.29003 6.79794 3.66599 8.31044 3.66599 10.0827C3.66599 11.8643 4.29003 13.3791 5.5381 14.6272C6.78619 15.8753 8.30104 16.4993 10.0827 16.4993ZM10.0827 17.8743C9.00147 17.8743 7.98844 17.6698 7.04357 17.2608C6.0987 16.8519 5.27487 16.296 4.57209 15.5932C3.86933 14.8904 3.31347 14.0666 2.90449 13.1218C2.49551 12.1769 2.29102 11.1639 2.29102 10.0827C2.29102 9.01086 2.49551 8.00254 2.90449 7.05768C3.31347 6.11281 3.86933 5.28664 4.57209 4.57915C5.27487 3.87169 6.0987 3.31347 7.04357 2.9045C7.98844 2.49551 9.00147 2.29102 10.0827 2.29102C11.1545 2.29102 12.1628 2.49551 13.1076 2.9045C14.0525 3.31347 14.8787 3.87169 15.5862 4.57915C16.2936 5.28664 16.8519 6.11281 17.2608 7.05768C17.6698 8.00254 17.8743 9.01086 17.8743 10.0827C17.8743 11.0369 17.7124 11.9377 17.3886 12.7851C17.0649 13.6324 16.6174 14.4004 16.0462 15.0891L19.2334 18.2763C19.3698 18.4126 19.4341 18.5706 19.4265 18.7504C19.4188 18.9302 19.3469 19.0883 19.2105 19.2246C19.0742 19.3516 18.9147 19.415 18.7319 19.415C18.5492 19.415 18.3897 19.3516 18.2533 19.2246L15.075 16.0604C14.3863 16.6315 13.6183 17.0766 12.7709 17.3957C11.9236 17.7148 11.0275 17.8743 10.0827 17.8743Z" fill="currentColor"/>
</svg>
